<?xml version="1.0" encoding="UTF-8"?>
<!DOCTYPE svg PUBLIC "-//W3C//DTD SVG 1.1//EN" "http://www.w3.org/Graphics/SVG/1.1/DTD/svg11.dtd">
<svg xmlns="http://www.w3.org/2000/svg" version="1.1" width="356px" height="132px" style="shape-rendering:geometricPrecision; text-rendering:geometricPrecision; image-rendering:optimizeQuality; fill-rule:evenodd; clip-rule:evenodd" xmlns:xlink="http://www.w3.org/1999/xlink">
<g><path style="opacity:0.985" fill="#fdfdfd" d="M 147.5,3.5 C 189.614,1.0857 231.28,4.25237 272.5,13C 292.678,17.3906 311.678,24.724 329.5,35C 338.854,40.6843 345.688,48.5176 350,58.5C 352.121,68.2056 350.121,76.8723 344,84.5C 332.911,95.3009 320.078,103.468 305.5,109C 264.368,123.186 222.035,129.686 178.5,128.5C 134.965,129.686 92.6317,123.186 51.5,109C 36.9221,103.468 24.0887,95.3009 13,84.5C 2.31517,67.5427 4.81517,52.7094 20.5,40C 36.2729,28.7825 53.6063,20.7825 72.5,16C 97.2822,9.64739 122.282,5.48072 147.5,3.5 Z"/></g>
<g><path style="opacity:1" fill="#fefcfa" d="M 147.5,34.5 C 150.482,34.1044 153.149,34.7711 155.5,36.5C 151.507,41.8664 151.507,47.1997 155.5,52.5C 146.204,57.0509 140.537,54.2176 138.5,44C 138.989,38.3463 141.989,35.1796 147.5,34.5 Z"/></g>
<g><path style="opacity:1" fill="#fefbf7" d="M 166.5,34.5 C 168.346,34.2222 169.68,34.8888 170.5,36.5C 169.533,38.7901 168.2,40.7901 166.5,42.5C 163.03,41.7124 160.363,39.7124 158.5,36.5C 160.851,34.7711 163.518,34.1044 166.5,34.5 Z"/></g>
<g><path style="opacity:1" fill="#fdfbf9" d="M 210.5,34.5 C 220.315,34.7462 223.815,39.7462 221,49.5C 219.207,52.3077 216.707,53.9744 213.5,54.5C 210.335,55.0365 207.669,54.2031 205.5,52C 209.466,46.868 209.466,41.7014 205.5,36.5C 206.85,35.0499 208.516,34.3832 210.5,34.5 Z"/></g>
<g><path style="opacity:1" fill="#fbdfa1" d="M 150.5,32.5 C 152.84,33.086 155.007,34.086 157,35.5C 158.488,33.84 160.321,32.84 162.5,32.5C 163.833,33.1667 165.167,33.8333 166.5,34.5C 163.518,34.1044 160.851,34.7711 158.5,36.5C 160.363,39.7124 163.03,41.7124 166.5,42.5C 166.833,42.5 167.167,42.5 167.5,42.5C 166.167,43.8333 166.167,45.1667 167.5,46.5C 167.167,46.5 166.833,46.5 166.5,46.5C 163.03,47.2876 160.363,49.2876 158.5,52.5C 160.851,54.2289 163.518,54.8956 166.5,54.5C 166.5,55.1667 166.833,55.5 167.5,55.5C 163.822,56.9961 160.489,56.3294 157.5,53.5C 157.591,51.3023 156.925,50.9689 155.5,52.5C 151.507,47.1997 151.507,41.8664 155.5,36.5C 153.149,34.7711 150.482,34.1044 147.5,34.5C 148.5,33.8333 149.5,33.1667 150.5,32.5 Z"/></g>
<g><path style="opacity:1" fill="#fbde9f" d="M 203.5,35.5 C 203.557,36.609 203.89,37.609 204.5,38.5C 196.519,41.3472 195.852,45.0139 202.5,49.5C 201.833,49.5 201.5,49.8333 201.5,50.5C 199.814,48.9835 197.981,47.6502 196,46.5C 187.008,51.7191 187.841,54.3858 198.5,54.5C 198.5,54.8333 198.5,55.1667 198.5,55.5C 197.726,56.1471 196.726,56.4805 195.5,56.5C 192.822,55.8246 190.156,55.158 187.5,54.5C 187.5,53.8333 187.167,53.5 186.5,53.5C 185.167,50.1667 182.833,47.8333 179.5,46.5C 180.5,45.5 181.5,44.5 182.5,43.5C 183.802,46.9754 186.135,49.1421 189.5,50C 196.187,45.1475 195.521,41.3142 187.5,38.5C 188.091,37.8485 188.757,37.1818 189.5,36.5C 188.757,35.8182 188.091,35.1515 187.5,34.5C 190.285,33.6945 193.119,33.0278 196,32.5C 198.956,32.568 201.456,33.568 203.5,35.5 Z"/></g>
<g><path style="opacity:1" fill="#fefdf9" d="M 191.5,34.5 C 194.518,34.3354 197.518,34.502 200.5,35C 201.308,35.3076 201.975,35.8076 202.5,36.5C 200.798,39.0367 198.631,41.0367 196,42.5C 194.355,40.8551 192.688,39.1884 191,37.5C 190.53,36.4232 190.697,35.4232 191.5,34.5 Z"/></g>
<g><path style="opacity:1" fill="#fefbf4" d="M 156.5,38.5 C 164.006,41.8668 164.339,45.8668 157.5,50.5C 153.968,46.7763 153.635,42.7763 156.5,38.5 Z"/></g>
<g><path style="opacity:1" fill="#fefbf7" d="M 187.5,38.5 C 195.521,41.3142 196.187,45.1475 189.5,50C 186.135,49.1421 183.802,46.9754 182.5,43.5C 183.833,41.5 185.5,39.8333 187.5,38.5 Z"/></g>
<g><path style="opacity:1" fill="#fef9f1" d="M 204.5,38.5 C 207.136,42.2665 207.136,46.0998 204.5,50C 203.563,50.6917 202.897,50.525 202.5,49.5C 195.852,45.0139 196.519,41.3472 204.5,38.5 Z"/></g>
<g><path style="opacity:1" fill="#fefcfa" d="M 167.5,46.5 C 166.167,45.1667 166.167,43.8333 167.5,42.5C 169.148,41.1902 170.814,39.8569 172.5,38.5C 174.833,40.1667 176.833,42.1667 178.5,44.5C 176.833,46.8333 174.833,48.8333 172.5,50.5C 170.814,49.1431 169.148,47.8098 167.5,46.5 Z"/></g>
<g><path style="opacity:1" fill="#edb96c" d="M 150.5,32.5 C 149.5,33.1667 148.5,33.8333 147.5,34.5C 141.989,35.1796 138.989,38.3463 138.5,44C 140.537,54.2176 146.204,57.0509 155.5,52.5C 156.925,50.9689 157.591,51.3023 157.5,53.5C 142.882,59.2627 136.382,54.2627 138,38.5C 141.213,34.4765 145.38,32.4765 150.5,32.5 Z"/></g>
<g><path style="opacity:1" fill="#cc8765" d="M 213.5,32.5 C 223.408,35.0481 226.241,41.0481 222,50.5C 220.207,53.3077 217.707,54.9744 214.5,55.5C 213.833,55.5 213.5,55.1667 213.5,54.5C 216.707,53.9744 219.207,52.3077 221,49.5C 223.815,39.7462 220.315,34.7462 210.5,34.5C 211.5,33.8333 212.5,33.1667 213.5,32.5 Z"/></g>
<g><path style="opacity:1" fill="#fefcf7" d="M 166.5,46.5 C 167.96,48.4628 169.627,50.2962 171.5,52C 170.09,53.3717 168.423,54.205 166.5,54.5C 163.518,54.8956 160.851,54.2289 158.5,52.5C 160.363,49.2876 163.03,47.2876 166.5,46.5 Z"/></g>
<g><path style="opacity:1" fill="#fefcf7" d="M 201.5,50.5 C 202.651,53.0526 201.651,54.3859 198.5,54.5C 187.841,54.3858 187.008,51.7191 196,46.5C 197.981,47.6502 199.814,48.9835 201.5,50.5 Z"/></g>
<g><path style="opacity:1" fill="#fefbf8" d="M 179.5,46.5 C 182.833,47.8333 185.167,50.1667 186.5,53.5C 184.704,54.7927 183.037,56.2927 181.5,58C 178.555,57.253 176.222,55.4196 174.5,52.5C 176.19,50.4807 177.856,48.4807 179.5,46.5 Z"/></g>
<g><path style="opacity:1" fill="#efbf79" d="M 213.5,32.5 C 212.5,33.1667 211.5,33.8333 210.5,34.5C 208.516,34.3832 206.85,35.0499 205.5,36.5C 209.466,41.7014 209.466,46.868 205.5,52C 207.669,54.2031 210.335,55.0365 213.5,54.5C 213.5,55.1667 213.833,55.5 214.5,55.5C 210.775,56.96 207.275,56.2933 204,53.5C 202.416,54.8613 200.582,55.528 198.5,55.5C 198.5,55.1667 198.5,54.8333 198.5,54.5C 201.651,54.3859 202.651,53.0526 201.5,50.5C 201.5,49.8333 201.833,49.5 202.5,49.5C 202.897,50.525 203.563,50.6917 204.5,50C 207.136,46.0998 207.136,42.2665 204.5,38.5C 203.89,37.609 203.557,36.609 203.5,35.5C 206.472,33.3502 209.805,32.3502 213.5,32.5 Z"/></g>
<g><path style="opacity:1" fill="#f0bd6f" d="M 187.5,34.5 C 188.091,35.1515 188.757,35.8182 189.5,36.5C 188.757,37.1818 188.091,37.8485 187.5,38.5C 185.5,39.8333 183.833,41.5 182.5,43.5C 181.5,44.5 180.5,45.5 179.5,46.5C 177.856,48.4807 176.19,50.4807 174.5,52.5C 176.222,55.4196 178.555,57.253 181.5,58C 183.037,56.2927 184.704,54.7927 186.5,53.5C 187.167,53.5 187.5,53.8333 187.5,54.5C 185.186,56.4773 182.853,58.4773 180.5,60.5C 177.833,58.1667 175.167,55.8333 172.5,53.5C 171.15,54.9501 169.484,55.6168 167.5,55.5C 166.833,55.5 166.5,55.1667 166.5,54.5C 168.423,54.205 170.09,53.3717 171.5,52C 169.627,50.2962 167.96,48.4628 166.5,46.5C 166.833,46.5 167.167,46.5 167.5,46.5C 169.148,47.8098 170.814,49.1431 172.5,50.5C 174.833,48.8333 176.833,46.8333 178.5,44.5C 176.833,42.1667 174.833,40.1667 172.5,38.5C 170.814,39.8569 169.148,41.1902 167.5,42.5C 167.167,42.5 166.833,42.5 166.5,42.5C 168.2,40.7901 169.533,38.7901 170.5,36.5C 169.68,34.8888 168.346,34.2222 166.5,34.5C 165.167,33.8333 163.833,33.1667 162.5,32.5C 166.013,32.3075 169.346,32.9741 172.5,34.5C 175.424,32.9181 178.091,30.9181 180.5,28.5C 183.467,29.8037 185.801,31.8037 187.5,34.5 Z"/></g>
<g><path style="opacity:1" fill="#fefcf9" d="M 179.5,30.5 C 182.407,31.7341 184.741,33.7341 186.5,36.5C 184.833,38.8333 182.833,40.8333 180.5,42.5C 178.167,40.8333 176.167,38.8333 174.5,36.5C 176.19,34.4807 177.856,32.4807 179.5,30.5 Z"/></g>
<g><path style="opacity:1" fill="#f8e0bf" d="M 71.5,60.5 C 105.507,60.1668 139.507,60.5001 173.5,61.5C 156.5,61.8333 139.5,62.1667 122.5,62.5C 105.153,62.4995 88.1533,61.8329 71.5,60.5 Z"/></g>
<g><path style="opacity:1" fill="#f8e0be" d="M 188.5,60.5 C 223.173,60.1668 257.84,60.5001 292.5,61.5C 275.167,61.8333 257.833,62.1667 240.5,62.5C 222.82,62.4996 205.487,61.8329 188.5,60.5 Z"/></g>
<g><path style="opacity:1" fill="#422222" d="M 277.5,70.5 C 278.491,76.979 278.824,83.6457 278.5,90.5C 282.702,90.1832 286.702,90.5166 290.5,91.5C 286.167,91.5 281.833,91.5 277.5,91.5C 277.5,84.5 277.5,77.5 277.5,70.5 Z"/></g>
<g><path style="opacity:1" fill="#7a6464" d="M 208.5,70.5 C 208.5,71.1667 208.833,71.5 209.5,71.5C 209.5,74.8333 209.5,78.1667 209.5,81.5C 208.167,82.1667 208.167,82.8333 209.5,83.5C 209.813,86.2469 209.48,88.9135 208.5,91.5C 207.181,84.344 207.181,77.344 208.5,70.5 Z"/></g>
<g><path style="opacity:1" fill="#573a39" d="M 208.5,70.5 C 212.182,70.3347 215.848,70.5014 219.5,71C 224.508,74.0853 224.842,77.7519 220.5,82C 216.974,83.3368 213.308,83.8368 209.5,83.5C 208.167,82.8333 208.167,82.1667 209.5,81.5C 212.167,82.8333 214.833,82.8333 217.5,81.5C 221.146,80.5385 222.313,78.2051 221,74.5C 220.184,73.1772 219.017,72.5106 217.5,72.5C 215.052,71.5269 212.385,71.1936 209.5,71.5C 208.833,71.5 208.5,71.1667 208.5,70.5 Z"/></g>
<g><path style="opacity:1" fill="#978383" d="M 228.5,70.5 C 229.821,73.5982 230.488,77.0982 230.5,81C 230.167,84.5 229.833,88 229.5,91.5C 228.503,84.5316 228.17,77.5316 228.5,70.5 Z"/></g>
<g><path style="opacity:1" fill="#634848" d="M 260.5,70.5 C 261.675,70.281 262.675,70.6143 263.5,71.5C 266.227,77.9544 269.227,84.2878 272.5,90.5C 272.167,90.8333 271.833,91.1667 271.5,91.5C 268.349,85.1978 265.182,78.8644 262,72.5C 258.91,78.3483 256.077,84.3483 253.5,90.5C 252.833,91.8333 252.167,91.8333 251.5,90.5C 254.893,83.9765 257.893,77.3099 260.5,70.5 Z"/></g>
<g><path style="opacity:1" fill="#bfb3b3" d="M 277.5,70.5 C 277.56,69.9569 277.893,69.6236 278.5,69.5C 279.497,76.1335 279.83,82.8002 279.5,89.5C 283.555,89.1758 287.555,89.5091 291.5,90.5C 291.376,91.1067 291.043,91.44 290.5,91.5C 286.702,90.5166 282.702,90.1832 278.5,90.5C 278.824,83.6457 278.491,76.979 277.5,70.5 Z"/></g>
<g><path style="opacity:1" fill="#513232" d="M 100.5,70.5 C 101.822,70.33 102.989,70.6634 104,71.5C 106.86,77.0813 109.526,82.7479 112,88.5C 112.749,89.635 112.583,90.635 111.5,91.5C 108.095,85.6927 104.928,79.6927 102,73.5C 99.0602,79.0459 96.3935,84.7126 94,90.5C 93.1072,91.7112 92.2739,91.7112 91.5,90.5C 94.5119,83.8117 97.5119,77.1451 100.5,70.5 Z"/></g>
<g><path style="opacity:1" fill="#543635" d="M 142.5,69.5 C 153.374,69.5364 157.874,74.8698 156,85.5C 152.178,91.0408 147.011,92.8741 140.5,91C 132.06,82.8381 132.727,75.6714 142.5,69.5 Z"/></g>
<g><path style="opacity:1" fill="#f7f6f6" d="M 141.5,72.5 C 151.156,71.657 154.989,75.9903 153,85.5C 148.62,90.3433 143.954,90.6767 139,86.5C 136.418,81.1198 137.251,76.4531 141.5,72.5 Z"/></g>
<g><path style="opacity:1" fill="#c7bdbd" d="M 209.5,71.5 C 212.385,71.1936 215.052,71.5269 217.5,72.5C 215.167,72.5 212.833,72.5 210.5,72.5C 210.5,75.5 210.5,78.5 210.5,81.5C 212.833,81.5 215.167,81.5 217.5,81.5C 214.833,82.8333 212.167,82.8333 209.5,81.5C 209.5,78.1667 209.5,74.8333 209.5,71.5 Z"/></g>
<g><path style="opacity:1" fill="#fafafa" d="M 217.5,72.5 C 219.017,72.5106 220.184,73.1772 221,74.5C 222.313,78.2051 221.146,80.5385 217.5,81.5C 215.167,81.5 212.833,81.5 210.5,81.5C 210.5,78.5 210.5,75.5 210.5,72.5C 212.833,72.5 215.167,72.5 217.5,72.5 Z"/></g>
<g><path style="opacity:1" fill="#442424" d="M 250.5,71.5 C 248.167,71.5 245.833,71.5 243.5,71.5C 243.5,78.1667 243.5,84.8333 243.5,91.5C 242.509,85.021 242.176,78.3543 242.5,71.5C 235.563,70.3974 238.229,70.3974 250.5,71.5 Z"/></g>
<g><path style="opacity:1" fill="#c3b9b9" d="M 250.5,71.5 C 248.735,72.4614 246.735,72.7947 244.5,72.5C 244.823,79.0221 244.49,85.3554 243.5,91.5C 243.5,84.8333 243.5,78.1667 243.5,71.5C 245.833,71.5 248.167,71.5 250.5,71.5 Z"/></g>
<g><path style="opacity:1" fill="#442424" d="M 73.5,70.5 C 75.0174,70.5106 76.1841,71.1772 77,72.5C 79.0285,75.0292 80.8619,77.6959 82.5,80.5C 85.1875,77.6383 87.5209,74.4717 89.5,71C 90.4835,70.4092 91.1501,70.7425 91.5,72C 89.3737,75.747 86.8737,79.247 84,82.5C 83,94.5 82,94.5 81,82.5C 78.2279,78.612 75.7279,74.612 73.5,70.5 Z"/></g>
<g><path style="opacity:1" fill="#684d4d" d="M 168.5,69.5 C 172.774,69.2573 176.441,70.5906 179.5,73.5C 179.167,73.8333 178.833,74.1667 178.5,74.5C 172.634,69.9812 167.467,70.6478 163,76.5C 162.343,89.4122 167.843,93.2455 179.5,88C 175.785,91.3103 171.452,92.3103 166.5,91C 160.37,86.9267 158.87,81.4267 162,74.5C 163.965,72.4497 166.132,70.783 168.5,69.5 Z"/></g>
<g><path style="opacity:1" fill="#533635" d="M 113.5,70.5 C 114.376,70.3691 115.043,70.7025 115.5,71.5C 117.838,76.842 120.172,82.1754 122.5,87.5C 124.833,82.1667 127.167,76.8333 129.5,71.5C 130.5,70.1667 131.5,70.1667 132.5,71.5C 129.458,78.4228 126.125,85.0895 122.5,91.5C 118.543,84.9802 115.543,77.9802 113.5,70.5 Z"/></g>
<g><path style="opacity:1" fill="#7b6464" d="M 191.5,70.5 C 192.675,70.281 193.675,70.6143 194.5,71.5C 198.317,77.7978 200.817,84.4645 202,91.5C 199.072,85.3073 195.905,79.3073 192.5,73.5C 189.686,79.0613 187.02,84.7279 184.5,90.5C 183.641,91.7742 182.974,91.6075 182.5,90C 185.104,83.2942 188.104,76.7942 191.5,70.5 Z"/></g>
</svg>
